# xmcd
# Copyright (c) 1998 CDDB Inc.
#
# Track frame offsets:
#	150
#	15101
#	36443
#	49438
#	65329
#	83858
#	102045
#	116926
#	132571
#	153811
#	168095
#	182159
#	197417
#	215555
#	232965
#	250523
#
# Disc length: 3521 seconds
#
# Revision: 1
# Processed by: cddbd v1.4PL0 Copyright (c) Steve Scherf et al.
# Submitted via: audiograbber 1.80
#
DISCID=ce0dbf10
DTITLE=Jindra Stahlavsky - Best Of
DYEAR=1900
DGENRE=
TTITLE0=Pojedou
TTITLE1=Devce ze skalistych hor
TTITLE2=Jaro
TTITLE3=Posledni verejne obeseni
TTITLE4=Ohio
TTITLE5=Tady koleje konci
TTITLE6=Povoden
TTITLE7=Plava Jane
TTITLE8=Ja lasku znam
TTITLE9=Nebeska brana
TTITLE10=Pet stromu
TTITLE11=Stary mlyn
TTITLE12=Meteora
TTITLE13=Podleham
TTITLE14=Rikali mu kuze lina
TTITLE15=Denni bar
EXTD=
EXTT0=
EXTT1=
EXTT2=
EXTT3=
EXTT4=
EXTT5=
EXTT6=
EXTT7=
EXTT8=
EXTT9=
EXTT10=
EXTT11=
EXTT12=
EXTT13=
EXTT14=
EXTT15=
PLAYORDER=
